<svg width="118" height="79" viewBox="0 0 118 79" fill="none" xmlns="http://www.w3.org/2000/svg">
<path d="M23.6807 28.2203H26.1171V77.1926C26.1171 77.8654 25.5717 78.4108 24.8989 78.4108C24.2261 78.4108 23.6807 77.8654 23.6807 77.1926V28.2203Z" fill="#3EB034" fill-opacity="0.6"/>
<path d="M28.4082 27.072C24.6322 30.0066 21.5994 27.9355 19.5581 24.7274C17.6222 21.6851 17.4231 17.8953 18.8619 14.5888C20.8688 9.97712 24.3891 4.13013 26.4775 0.932251C28.2926 5.36917 29.9519 8.50408 31.2393 11.0886C33.9266 16.4835 33.1672 23.3735 28.4082 27.072Z" fill="#60AE59" fill-opacity="0.8"/>
<path d="M43.9887 61.4241C29.3687 63.2516 27.5222 71.1327 26.5704 75.4159C48.5575 81.9835 49.9852 57.1409 49.4141 59.1397C48.9573 60.7388 45.6068 61.3289 43.9887 61.4241Z" fill="#60AE59" fill-opacity="0.8"/>
<path d="M6.29655 60.9884C20.9166 62.8159 22.7631 70.697 23.7149 74.9802C1.7278 81.5478 0.300069 56.7052 0.871163 58.704C1.32804 60.3031 4.67846 60.8932 6.29655 60.9884Z" fill="#60AE59" fill-opacity="0.8"/>
<path d="M43.6219 44.1664C29.7892 45.8955 28.042 53.3522 27.1415 57.4048C47.9447 63.6188 49.2955 40.1138 48.7552 42.005C48.3229 43.518 45.1529 44.0764 43.6219 44.1664Z" fill="#60AE59" fill-opacity="0.8"/>
<path d="M6.66336 43.7307C20.4961 45.4598 22.2432 52.9165 23.1438 56.9691C2.34061 63.183 0.989757 39.6781 1.5301 41.5693C1.96237 43.0823 5.13239 43.6406 6.66336 43.7307Z" fill="#60AE59" fill-opacity="0.8"/>
<path d="M43.3256 27.79C30.2209 29.4281 28.5657 36.4924 27.7126 40.3316C47.4209 46.2185 48.7006 23.9507 48.1887 25.7424C47.7792 27.1757 44.776 27.7047 43.3256 27.79Z" fill="#60AE59" fill-opacity="0.8"/>
<path d="M6.95966 27.3543C20.0644 28.9924 21.7196 36.0567 22.5727 39.8959C2.86443 45.7828 1.58467 23.515 2.09657 25.3067C2.50609 26.74 5.50926 27.269 6.95966 27.3543Z" fill="#60AE59" fill-opacity="0.8"/>
<path d="M59.6713 58.2674H61.836C61.8738 58.5243 61.9909 58.751 62.1873 58.9474C62.3838 59.1439 62.6445 59.295 62.9693 59.4008C63.3018 59.5065 63.6871 59.5594 64.1254 59.5594C64.7525 59.5594 65.2436 59.4725 65.5987 59.2988C65.9614 59.125 66.1427 58.8794 66.1427 58.5621C66.1427 58.3203 66.037 58.1352 65.8254 58.0067C65.6214 57.8707 65.2361 57.7725 64.6694 57.7121L63.026 57.5421C61.8851 57.4287 61.0578 57.1643 60.544 56.7487C60.0377 56.3332 59.7846 55.7665 59.7846 55.0487C59.7846 54.482 59.9509 53.9985 60.2833 53.598C60.6233 53.1976 61.0955 52.8915 61.7 52.68C62.312 52.4684 63.026 52.3627 63.842 52.3627C64.6505 52.3627 65.3645 52.4798 65.9841 52.714C66.6036 52.9482 67.0985 53.2731 67.4688 53.6887C67.839 54.1042 68.0392 54.5878 68.0694 55.1394H65.9047C65.8745 54.9127 65.7687 54.72 65.5874 54.5614C65.4136 54.3951 65.1756 54.2667 64.8734 54.176C64.5787 54.0778 64.2198 54.0287 63.7967 54.0287C63.23 54.0287 62.7767 54.1118 62.4367 54.278C62.1042 54.4367 61.938 54.6671 61.938 54.9694C61.938 55.196 62.0362 55.3736 62.2327 55.502C62.4367 55.6305 62.7956 55.7249 63.3094 55.7854L65.0434 55.978C65.8367 56.0612 66.4714 56.1934 66.9474 56.3747C67.4234 56.5561 67.7672 56.8054 67.9788 57.1227C68.1903 57.4401 68.2961 57.8405 68.2961 58.3241C68.2961 58.9059 68.1185 59.4159 67.7634 59.8541C67.4159 60.2848 66.9247 60.621 66.2901 60.8628C65.6629 61.1046 64.93 61.2255 64.0914 61.2255C63.2225 61.2255 62.4593 61.1008 61.802 60.8515C61.1522 60.6021 60.6384 60.2583 60.2606 59.8201C59.8904 59.3743 59.694 58.8568 59.6713 58.2674ZM76.6495 56.0007V57.5874H70.4954V56.0007H76.6495ZM71.9461 56.7941L71.3794 60.3074L70.4841 59.2988H77.0122V61.0441H69.2374L69.8947 56.7941L69.2374 52.544H76.9555V54.2894H70.4841L71.3794 53.2807L71.9461 56.7941ZM90.6023 52.544V61.0441H88.5623V53.292L89.061 53.326L85.6042 61.0441H83.4169L79.9602 53.3487L80.4588 53.3033V61.0441H78.4188V52.544H81.7168L84.9469 59.9788H84.0856L87.3043 52.544H90.6023ZM68.7381 71.3607C68.723 71.8745 68.621 72.3656 68.4321 72.8341C68.2432 73.295 67.9712 73.7068 67.6161 74.0694C67.261 74.4246 66.8227 74.7079 66.3014 74.9195C65.7801 75.1235 65.1718 75.2255 64.4767 75.2255C63.8118 75.2255 63.1885 75.1272 62.6067 74.9308C62.0324 74.7343 61.5262 74.4472 61.088 74.0694C60.6498 73.6841 60.3097 73.2194 60.068 72.6754C59.8262 72.1239 59.7053 71.4967 59.7053 70.7941C59.7053 70.0914 59.8262 69.468 60.068 68.924C60.3173 68.3725 60.6611 67.9078 61.0993 67.53C61.5451 67.1447 62.0627 66.8538 62.652 66.6573C63.2489 66.4609 63.8987 66.3627 64.6014 66.3627C65.5156 66.3627 66.309 66.5062 66.9814 66.7933C67.6614 67.0804 68.2054 67.4733 68.6134 67.972C69.029 68.4707 69.2935 69.0449 69.4068 69.6947H67.2421C67.1665 69.3774 67.0079 69.1054 66.7661 68.8787C66.5243 68.6445 66.2183 68.4669 65.8481 68.346C65.4854 68.2251 65.0698 68.1647 64.6014 68.1647C64.0347 68.1647 63.5474 68.2667 63.1394 68.4707C62.7313 68.6671 62.414 68.9618 62.1873 69.3547C61.9607 69.74 61.8473 70.2198 61.8473 70.7941C61.8473 71.3683 61.9644 71.8556 62.1987 72.2561C62.4405 72.6565 62.7805 72.9588 63.2187 73.1628C63.6645 73.3668 64.1858 73.4688 64.7827 73.4688C65.3645 73.4688 65.8745 73.3819 66.3127 73.2081C66.7585 73.0343 67.1099 72.785 67.3668 72.4601C67.6312 72.1352 67.7823 71.7461 67.8201 71.2927L68.7381 71.3607ZM65.032 72.2221V70.7034H69.4861V75.0441H67.9561L67.6614 71.6441L68.0921 72.2221H65.032ZM73.09 66.544V74.0921L72.1267 73.1514H78.4961V75.0441H70.948V66.544H73.09ZM81.189 71.2814C81.189 71.697 81.2684 72.0596 81.427 72.3694C81.5933 72.6716 81.8313 72.9059 82.1411 73.0721C82.4508 73.2308 82.8324 73.3101 83.2857 73.3101C83.7466 73.3101 84.132 73.2308 84.4418 73.0721C84.7515 72.9059 84.9858 72.6716 85.1444 72.3694C85.3031 72.0596 85.3824 71.697 85.3824 71.2814V66.544H87.5131V71.3834C87.5131 72.1541 87.3356 72.8265 86.9805 73.4008C86.6329 73.975 86.1418 74.4246 85.5071 74.7495C84.8724 75.0668 84.132 75.2255 83.2857 75.2255C82.4395 75.2255 81.6991 75.0668 81.0644 74.7495C80.4297 74.4246 79.9348 73.975 79.5797 73.4008C79.2246 72.8265 79.047 72.1541 79.047 71.3834V66.544H81.189V71.2814ZM83.6371 64.0279H86.0398L84.1018 65.898H81.9711L83.6371 64.0279ZM91.7521 67.4847H93.8942V75.0441H91.7521V67.4847ZM88.4428 66.544H97.2036V68.4367H88.4428V66.544ZM105.382 70.0007V71.5874H99.2277V70.0007H105.382ZM100.678 70.7941L100.112 74.3074L99.2163 73.2988H105.744V75.0441H97.9696L98.627 70.7941L97.9696 66.544H105.688V68.2894H99.2163L100.112 67.2807L100.678 70.7941ZM115.028 73.5821L114.336 73.7068V66.544H116.411V75.0441H113.713L108.534 67.8813L109.225 67.7567V75.0441H107.151V66.544H109.928L115.028 73.5821Z" fill="black"/>
<path d="M65.1076 46.2663C68.3416 46.2663 70.9633 43.6446 70.9633 40.4106C70.9633 37.1767 68.3416 34.555 65.1076 34.555C61.8736 34.555 59.252 37.1767 59.252 40.4106C59.252 43.6446 61.8736 46.2663 65.1076 46.2663Z" stroke="black" stroke-width="2.0913" stroke-linecap="round" stroke-linejoin="round"/>
<path d="M60.9678 36.2707L69.2477 44.5506" stroke="black" stroke-width="2.0913" stroke-linecap="round" stroke-linejoin="round"/>
</svg>
