<svg width="117" height="85" viewBox="0 0 117 85" fill="none" xmlns="http://www.w3.org/2000/svg">
<path d="M0 3.76203C0 1.68432 1.68432 0 3.76203 0H38.5609C40.6386 0 42.3229 1.68432 42.3229 3.76203C42.3229 5.83975 40.6386 7.52407 38.5609 7.52407H3.76203C1.68432 7.52407 0 5.83975 0 3.76203Z" fill="#A19FB2" fill-opacity="0.86"/>
<path d="M0 36.5141C0 33.9871 0.522229 31.4874 1.53393 29.1717L10.5807 8.46458H31.7422L40.789 29.1717C41.8007 31.4874 42.3229 33.9871 42.3229 36.5141V84.4107H0V36.5141Z" fill="#676CCE" fill-opacity="0.4"/>
<path d="M6.45491 37.2657C6.45485 34.5464 9.38791 31.9328 12.3209 34.3326C16.2963 37.5853 20.3182 41.533 25.4547 41.533H30.1545C33.2639 41.533 35.7845 44.0537 35.7845 47.163V76.5295C35.7845 77.376 35.0983 78.0622 34.2518 78.0622H9.32244C7.58094 78.0622 6.15793 76.6692 6.13822 74.9278C6.00401 63.0694 6.4552 51.4801 6.45491 37.2657Z" fill="white"/>
<path d="M52.1332 65.1207H54.2222C54.2587 65.3686 54.3717 65.5874 54.5613 65.7769C54.7509 65.9665 55.0024 66.1124 55.316 66.2144C55.6368 66.3165 56.0087 66.3676 56.4316 66.3676C57.0368 66.3676 57.5107 66.2837 57.8534 66.116C58.2034 65.9483 58.3784 65.7113 58.3784 65.4051C58.3784 65.1717 58.2764 64.9931 58.0722 64.8691C57.8753 64.7379 57.5035 64.6431 56.9566 64.5848L55.3707 64.4207C54.2696 64.3113 53.4712 64.0561 52.9754 63.6551C52.4868 63.2541 52.2426 62.7072 52.2426 62.0145C52.2426 61.4676 52.403 61.001 52.7238 60.6145C53.0519 60.228 53.5077 59.9327 54.091 59.7286C54.6816 59.5244 55.3707 59.4223 56.1582 59.4223C56.9384 59.4223 57.6274 59.5353 58.2253 59.7614C58.8232 59.9874 59.3008 60.301 59.6581 60.702C60.0154 61.103 60.2086 61.5697 60.2378 62.102H58.1488C58.1196 61.8832 58.0175 61.6973 57.8425 61.5442C57.6748 61.3838 57.4451 61.2598 57.1535 61.1723C56.8691 61.0775 56.5227 61.0301 56.1144 61.0301C55.5675 61.0301 55.13 61.1103 54.8019 61.2707C54.4811 61.4239 54.3207 61.6463 54.3207 61.9379C54.3207 62.1567 54.4155 62.328 54.605 62.452C54.8019 62.5759 55.1483 62.6671 55.6441 62.7254L57.3175 62.9113C58.0831 62.9916 58.6956 63.1192 59.155 63.2942C59.6144 63.4692 59.9461 63.7098 60.1503 64.016C60.3545 64.3223 60.4565 64.7087 60.4565 65.1754C60.4565 65.7368 60.2852 66.229 59.9425 66.6519C59.6071 67.0675 59.1331 67.392 58.5206 67.6254C57.9154 67.8587 57.2081 67.9754 56.3988 67.9754C55.5602 67.9754 54.8238 67.855 54.1894 67.6144C53.5623 67.3738 53.0665 67.042 52.7019 66.6191C52.3447 66.1889 52.1551 65.6894 52.1332 65.1207ZM68.518 62.9332V64.4645H62.579V62.9332H68.518ZM63.979 63.6988L63.4321 67.0894L62.5681 66.116H68.868V67.8004H61.3649L61.9993 63.6988L61.3649 59.5973H68.8133V61.2817H62.5681L63.4321 60.3083L63.979 63.6988ZM81.9831 59.5973V67.8004H80.0144V60.3192L80.4956 60.352L77.1597 67.8004H75.0488L71.7129 60.3739L72.1941 60.3301V67.8004H70.2254V59.5973H73.4082L76.5253 66.7722H75.6941L78.8003 59.5973H81.9831ZM54.5941 73.5973V80.8816L53.6644 79.9738H59.8112V81.8004H52.5269V73.5973H54.5941ZM62.2813 80.1488V78.4863H67.9469V80.1488H62.2813ZM66.5031 73.5973L70.2874 81.8004H68.089L64.8406 74.4614H65.475L62.2375 81.8004H60.0391L63.8235 73.5973H66.5031ZM79.6434 78.4098C79.5632 79.1171 79.319 79.7405 78.9106 80.2801C78.5023 80.8123 77.9627 81.228 77.2919 81.5269C76.6211 81.8259 75.8555 81.9754 74.995 81.9754C74.0544 81.9754 73.2268 81.7967 72.5123 81.4394C71.805 81.0821 71.2545 80.5827 70.8607 79.941C70.467 79.2993 70.2701 78.552 70.2701 77.6988C70.2701 76.8457 70.467 76.0983 70.8607 75.4567C71.2545 74.815 71.805 74.3155 72.5123 73.9583C73.2268 73.601 74.0544 73.4223 74.995 73.4223C75.8555 73.4223 76.6211 73.5718 77.2919 73.8708C77.9627 74.1697 78.5023 74.5853 78.9106 75.1176C79.319 75.6499 79.5632 76.2733 79.6434 76.9879H77.5653C77.4924 76.616 77.3429 76.2989 77.1169 76.0364C76.8982 75.7739 76.6065 75.5733 76.2419 75.4348C75.8846 75.289 75.469 75.2161 74.995 75.2161C74.4482 75.2161 73.9779 75.3181 73.5841 75.5223C73.1904 75.7192 72.8878 76.0035 72.6763 76.3754C72.4649 76.7473 72.3591 77.1884 72.3591 77.6988C72.3591 78.2092 72.4649 78.6504 72.6763 79.0223C72.8878 79.3941 73.1904 79.6821 73.5841 79.8863C73.9779 80.0832 74.4482 80.1816 74.995 80.1816C75.469 80.1816 75.8846 80.1124 76.2419 79.9738C76.6065 79.8353 76.8982 79.6348 77.1169 79.3723C77.3429 79.1098 77.4924 78.7889 77.5653 78.4098H79.6434ZM83.0607 74.5051H85.1278V81.8004H83.0607V74.5051ZM79.867 73.5973H88.3216V75.4239H79.867V73.5973ZM93.4008 81.9754C92.4383 81.9754 91.5925 81.7967 90.8633 81.4394C90.1414 81.0821 89.58 80.5827 89.1789 79.941C88.7779 79.2993 88.5774 78.552 88.5774 77.6988C88.5774 76.8457 88.7779 76.0983 89.1789 75.4567C89.58 74.815 90.1414 74.3155 90.8633 73.9583C91.5925 73.601 92.4383 73.4223 93.4008 73.4223C94.3633 73.4223 95.2054 73.601 95.9273 73.9583C96.6565 74.3155 97.2216 74.815 97.6226 75.4567C98.0309 76.0983 98.2351 76.8457 98.2351 77.6988C98.2351 78.552 98.0309 79.2993 97.6226 79.941C97.2216 80.5827 96.6565 81.0821 95.9273 81.4394C95.2054 81.7967 94.3633 81.9754 93.4008 81.9754ZM93.4008 80.1269C93.9695 80.1269 94.4581 80.0321 94.8664 79.8426C95.2747 79.6457 95.5882 79.365 95.807 79.0004C96.033 78.6358 96.1461 78.202 96.1461 77.6988C96.1461 77.1957 96.033 76.7619 95.807 76.3973C95.5882 76.0327 95.2747 75.7556 94.8664 75.566C94.4581 75.3692 93.9695 75.2707 93.4008 75.2707C92.8393 75.2707 92.3544 75.3692 91.9461 75.566C91.5378 75.7556 91.2206 76.0327 90.9946 76.3973C90.7685 76.7619 90.6555 77.1957 90.6555 77.6988C90.6555 78.202 90.7685 78.6358 90.9946 79.0004C91.2206 79.365 91.5378 79.6457 91.9461 79.8426C92.3544 80.0321 92.8393 80.1269 93.4008 80.1269ZM99.0656 79.1207H101.155C101.191 79.3686 101.304 79.5874 101.494 79.7769C101.683 79.9665 101.935 80.1124 102.248 80.2144C102.569 80.3165 102.941 80.3676 103.364 80.3676C103.969 80.3676 104.443 80.2837 104.786 80.116C105.136 79.9483 105.311 79.7113 105.311 79.4051C105.311 79.1717 105.209 78.9931 105.005 78.8691C104.808 78.7379 104.436 78.6431 103.889 78.5848L102.303 78.4207C101.202 78.3113 100.404 78.0561 99.9078 77.6551C99.4193 77.2541 99.175 76.7072 99.175 76.0145C99.175 75.4676 99.3354 75.001 99.6563 74.6145C99.9844 74.228 100.44 73.9327 101.023 73.7286C101.614 73.5244 102.303 73.4223 103.091 73.4223C103.871 73.4223 104.56 73.5353 105.158 73.7614C105.756 73.9874 106.233 74.301 106.591 74.702C106.948 75.103 107.141 75.5697 107.17 76.102H105.081C105.052 75.8832 104.95 75.6973 104.775 75.5442C104.607 75.3838 104.378 75.2598 104.086 75.1723C103.802 75.0775 103.455 75.0301 103.047 75.0301C102.5 75.0301 102.062 75.1103 101.734 75.2707C101.414 75.4239 101.253 75.6463 101.253 75.9379C101.253 76.1567 101.348 76.328 101.537 76.452C101.734 76.5759 102.081 76.6671 102.577 76.7254L104.25 76.9113C105.016 76.9916 105.628 77.1192 106.087 77.2942C106.547 77.4692 106.879 77.7098 107.083 78.016C107.287 78.3223 107.389 78.7087 107.389 79.1754C107.389 79.7368 107.218 80.229 106.875 80.6519C106.54 81.0675 106.066 81.392 105.453 81.6254C104.848 81.8587 104.141 81.9754 103.331 81.9754C102.493 81.9754 101.756 81.855 101.122 81.6144C100.495 81.3738 99.999 81.042 99.6344 80.6191C99.2771 80.1889 99.0875 79.6894 99.0656 79.1207ZM115.45 76.9332V78.4645H109.511V76.9332H115.45ZM110.911 77.6988L110.365 81.0894L109.501 80.116H115.8V81.8004H108.297L108.932 77.6988L108.297 73.5973H115.746V75.2817H109.501L110.365 74.3083L110.911 77.6988Z" fill="black"/>
<path d="M58.8375 53.1546C61.9584 53.1546 64.4885 50.6246 64.4885 47.5036C64.4885 44.3827 61.9584 41.8527 58.8375 41.8527C55.7166 41.8527 53.1865 44.3827 53.1865 47.5036C53.1865 50.6246 55.7166 53.1546 58.8375 53.1546Z" stroke="black" stroke-width="2.01821" stroke-linecap="round" stroke-linejoin="round"/>
<path d="M54.8428 43.5084L62.8333 51.4988" stroke="black" stroke-width="2.01821" stroke-linecap="round" stroke-linejoin="round"/>
</svg>
