<svg width="270" height="203" viewBox="0 0 270 203" fill="none" xmlns="http://www.w3.org/2000/svg">
<path d="M27.9809 11.8768H51.4326V77.1992H27.9809V11.8768ZM0 1.71106H79.4135V22.5458H0V1.71106Z" fill="white"/>
<path d="M127.402 78.9103C118.343 78.9103 110.392 77.2663 103.548 73.9784C96.7706 70.6905 91.4696 66.0941 87.6449 60.1892C83.8873 54.2844 82.0084 47.373 82.0084 39.4551C82.0084 31.5373 83.8873 24.6259 87.6449 18.7211C91.4696 12.8162 96.7706 8.21982 103.548 4.93189C110.392 1.64396 118.343 0 127.402 0C136.461 0 144.378 1.64396 151.156 4.93189C158 8.21982 163.301 12.8162 167.058 18.7211C170.883 24.6259 172.796 31.5373 172.796 39.4551C172.796 47.373 170.883 54.2844 167.058 60.1892C163.301 66.0941 158 70.6905 151.156 73.9784C144.378 77.2663 136.461 78.9103 127.402 78.9103ZM127.402 58.0756C131.898 58.0756 135.756 57.3375 138.977 55.8612C142.265 54.3179 144.781 52.1707 146.526 49.4196C148.27 46.6014 149.143 43.2799 149.143 39.4551C149.143 35.6304 148.27 32.3425 146.526 29.5914C144.781 26.7731 142.265 24.6259 138.977 23.1497C135.756 21.6064 131.898 20.8347 127.402 20.8347C122.906 20.8347 119.014 21.6064 115.726 23.1497C112.506 24.6259 110.023 26.7731 108.278 29.5914C106.534 32.3425 105.661 35.6304 105.661 39.4551C105.661 43.2799 106.534 46.6014 108.278 49.4196C110.023 52.1707 112.506 54.3179 115.726 55.8612C119.014 57.3375 122.906 58.0756 127.402 58.0756Z" fill="white"/>
<path d="M225.912 1.71106C232.488 1.71106 238.124 2.81822 242.821 5.03255C247.585 7.24686 251.209 10.367 253.691 14.3931C256.174 18.352 257.415 23.0491 257.415 28.4842C257.415 33.8522 256.174 38.5493 253.691 42.5753C251.209 46.6014 247.585 49.7215 242.821 51.9359C238.124 54.1502 232.488 55.2573 225.912 55.2573H193.603V36.7376H224.402C227.354 36.7376 229.636 35.9995 231.246 34.5233C232.924 33.047 233.762 31.034 233.762 28.4842C233.762 25.8002 232.924 23.7536 231.246 22.3445C229.636 20.9354 227.354 20.2308 224.402 20.2308H195.616L206.184 9.56183V77.1992H182.732V1.71106H225.912Z" fill="white"/>
<path d="M7.75012 127.072H13.3866V202.56H7.75012V127.072ZM71.1602 127.072H76.7966V202.56H71.1602V127.072ZM10.367 162.3H75.1862V167.332H10.367V162.3Z" fill="white"/>
<path d="M101.746 182.43V177.397H155.293V182.43H101.746ZM131.74 127.072L169.887 202.56H163.546L126.506 128.481H131.438L94.2981 202.56H87.9571L126.104 127.072H131.74Z" fill="white"/>
<path d="M181.039 127.072H186.675V202.56H181.039V127.072Z" fill="white"/>
<path d="M210.127 164.313H244.147C249.716 164.313 254.178 162.87 257.533 159.985C260.888 157.032 262.566 153.107 262.566 148.208C262.566 143.31 260.888 139.418 257.533 136.533C254.178 133.581 249.716 132.104 244.147 132.104H209.322L211.838 129.588V202.56H206.201V127.072H243.644C248.542 127.072 252.803 127.978 256.426 129.789C260.117 131.534 263.002 134.017 265.082 137.238C267.162 140.391 268.202 144.048 268.202 148.208C268.202 152.369 267.162 156.059 265.082 159.28C263.002 162.434 260.117 164.917 256.426 166.728C252.803 168.473 248.542 169.345 243.644 169.345H210.127V164.313ZM228.647 167.231H236.296L269.41 202.56H261.761L228.647 167.231Z" fill="white"/>
</svg>
