<svg width="17" height="17" viewBox="0 0 17 17" fill="none" xmlns="http://www.w3.org/2000/svg">
<circle cx="8.83157" cy="8.49857" r="8.13333" fill="#60AE59"/>
<circle cx="8.81926" cy="8.48625" r="6.90031" fill="url(#paint0_linear_112_434)"/>
<path d="M6.71707 8.83463C6.41026 8.83463 6.13931 8.77885 5.90422 8.66728C5.67311 8.55571 5.49181 8.40031 5.36032 8.20108C5.22883 7.99787 5.16309 7.76278 5.16309 7.49581C5.16309 7.23283 5.22883 7.00172 5.36032 6.80249C5.49181 6.60326 5.67311 6.44787 5.90422 6.3363C6.13931 6.22473 6.41026 6.16895 6.71707 6.16895C7.02787 6.16895 7.29882 6.22473 7.52993 6.3363C7.76103 6.44787 7.94233 6.60326 8.07382 6.80249C8.20531 7.00172 8.27106 7.23283 8.27106 7.49581C8.27106 7.76278 8.20531 7.99787 8.07382 8.20108C7.94233 8.40031 7.76103 8.55571 7.52993 8.66728C7.29882 8.77885 7.02787 8.83463 6.71707 8.83463ZM6.71707 8.18315C6.92826 8.18315 7.09362 8.12338 7.21315 8.00385C7.33668 7.88032 7.39844 7.71297 7.39844 7.50179C7.39844 7.29061 7.33867 7.12325 7.21913 6.99973C7.09959 6.87621 6.93224 6.81445 6.71707 6.81445C6.50589 6.81445 6.34053 6.87621 6.22099 6.99973C6.10146 7.12325 6.04169 7.29061 6.04169 7.50179C6.04169 7.71297 6.10146 7.88032 6.22099 8.00385C6.34053 8.12338 6.50589 8.18315 6.71707 8.18315ZM10.9308 10.801C10.624 10.801 10.353 10.7452 10.1179 10.6337C9.88681 10.5221 9.70551 10.3647 9.57402 10.1615C9.44253 9.95828 9.37678 9.72518 9.37678 9.4622C9.37678 9.19524 9.44253 8.96214 9.57402 8.76291C9.70551 8.56368 9.88681 8.40828 10.1179 8.29671C10.353 8.18514 10.624 8.12936 10.9308 8.12936C11.2416 8.12936 11.5125 8.18514 11.7436 8.29671C11.9747 8.40828 12.156 8.56368 12.2875 8.76291C12.419 8.96214 12.4848 9.19524 12.4848 9.4622C12.4848 9.72518 12.419 9.95828 12.2875 10.1615C12.156 10.3647 11.9747 10.5221 11.7436 10.6337C11.5125 10.7452 11.2416 10.801 10.9308 10.801ZM10.9308 10.1436C11.142 10.1436 11.3073 10.0838 11.4268 9.96426C11.5504 9.84472 11.6121 9.67737 11.6121 9.4622C11.6121 9.25102 11.5524 9.08367 11.4328 8.96015C11.3133 8.83662 11.1459 8.77486 10.9308 8.77486C10.7196 8.77486 10.5542 8.83662 10.4347 8.96015C10.3152 9.08367 10.2554 9.25102 10.2554 9.4622C10.2554 9.67737 10.3152 9.84472 10.4347 9.96426C10.5542 10.0838 10.7196 10.1436 10.9308 10.1436ZM9.63379 6.22274H10.4586L8.02003 10.7054H7.19522L9.63379 6.22274Z" fill="#D6D6D6"/>
<defs>
<linearGradient id="paint0_linear_112_434" x1="8.81926" y1="1.58594" x2="8.81926" y2="15.3866" gradientUnits="userSpaceOnUse">
<stop stop-color="#11B003"/>
<stop offset="1" stop-color="#3EB034"/>
</linearGradient>
</defs>
</svg>
