<svg width="24" height="24" viewBox="0 0 24 24" fill="none" xmlns="http://www.w3.org/2000/svg">
<circle cx="11.5625" cy="11.5625" r="11.5625" fill="#525252"/>
<circle cx="11.5303" cy="11.5303" r="9.80961" fill="url(#paint0_linear_112_551)"/>
<path d="M9.37086 11.1013V9.30367C9.37086 8.70772 9.6076 8.13618 10.029 7.71478C10.4504 7.29338 11.0219 7.05664 11.6179 7.05664C12.2138 7.05664 12.7854 7.29338 13.2068 7.71478C13.6282 8.13618 13.8649 8.70772 13.8649 9.30367V11.1013M8.47205 11.1013H14.7637C15.2601 11.1013 15.6625 11.5037 15.6625 12.0001V15.1459C15.6625 15.6423 15.2601 16.0447 14.7637 16.0447H8.47205C7.97565 16.0447 7.57324 15.6423 7.57324 15.1459V12.0001C7.57324 11.5037 7.97565 11.1013 8.47205 11.1013Z" stroke="#D6D6D6" stroke-width="1.41477" stroke-linecap="round" stroke-linejoin="round"/>
<defs>
<linearGradient id="paint0_linear_112_551" x1="11.5303" y1="1.7207" x2="11.5303" y2="21.3399" gradientUnits="userSpaceOnUse">
<stop/>
<stop offset="1" stop-color="#292929"/>
</linearGradient>
</defs>
</svg>
