<svg width="302" height="46" viewBox="0 0 302 46" fill="none" xmlns="http://www.w3.org/2000/svg">
<path d="M16.0306 7.58521H29.3464V44.6753H16.0306V7.58521ZM0.142992 1.81311H45.234V13.6431H0.142992V1.81311ZM72.4819 45.6468C67.3384 45.6468 62.8236 44.7134 58.9374 42.8465C55.0893 40.9796 52.0795 38.3698 49.9078 35.017C47.7742 31.6642 46.7074 27.74 46.7074 23.2442C46.7074 18.7484 47.7742 14.8242 49.9078 11.4714C52.0795 8.11861 55.0893 5.50878 58.9374 3.64189C62.8236 1.77501 67.3384 0.841565 72.4819 0.841565C77.6253 0.841565 82.1211 1.77501 85.9692 3.64189C89.8553 5.50878 92.8652 8.11861 94.9988 11.4714C97.1705 14.8242 98.2563 18.7484 98.2563 23.2442C98.2563 27.74 97.1705 31.6642 94.9988 35.017C92.8652 38.3698 89.8553 40.9796 85.9692 42.8465C82.1211 44.7134 77.6253 45.6468 72.4819 45.6468ZM72.4819 33.8169C75.0345 33.8169 77.2253 33.3978 79.0541 32.5596C80.9209 31.6833 82.3497 30.4641 83.3403 28.902C84.3309 27.3018 84.8262 25.4159 84.8262 23.2442C84.8262 21.0725 84.3309 19.2056 83.3403 17.6435C82.3497 16.0434 80.9209 14.8242 79.0541 13.986C77.2253 13.1097 75.0345 12.6715 72.4819 12.6715C69.9292 12.6715 67.7194 13.1097 65.8525 13.986C64.0237 14.8242 62.614 16.0434 61.6234 17.6435C60.6328 19.2056 60.1375 21.0725 60.1375 23.2442C60.1375 25.4159 60.6328 27.3018 61.6234 28.902C62.614 30.4641 64.0237 31.6833 65.8525 32.5596C67.7194 33.3978 69.9292 33.8169 72.4819 33.8169ZM128.416 1.81311C132.149 1.81311 135.35 2.44175 138.017 3.69905C140.722 4.95634 142.779 6.72797 144.189 9.01396C145.599 11.2618 146.303 13.9288 146.303 17.0149C146.303 20.0629 145.599 22.7299 144.189 25.0158C142.779 27.3018 140.722 29.0735 138.017 30.3307C135.35 31.588 132.149 32.2167 128.416 32.2167H110.071V21.7012H127.558C129.235 21.7012 130.53 21.2821 131.445 20.4439C132.397 19.6057 132.873 18.4627 132.873 17.0149C132.873 15.4909 132.397 14.3289 131.445 13.5288C130.53 12.7287 129.235 12.3286 127.558 12.3286H111.214L117.214 6.27077V44.6753H103.898V1.81311H128.416ZM152.887 1.81311H156.087V44.6753H152.887V1.81311ZM188.891 1.81311H192.091V44.6753H188.891V1.81311ZM154.373 21.8155H191.177V24.6729H154.373V21.8155ZM206.258 33.2454V30.3879H236.661V33.2454H206.258ZM223.288 1.81311L244.948 44.6753H241.348L220.317 2.6132H223.117L202.029 44.6753H198.428L220.088 1.81311H223.288ZM251.28 1.81311H254.48V44.6753H251.28V1.81311ZM267.796 22.9585H287.113C290.275 22.9585 292.809 22.1393 294.714 20.501C296.619 18.8246 297.571 16.5958 297.571 13.8145C297.571 11.0332 296.619 8.82346 294.714 7.18517C292.809 5.50878 290.275 4.67059 287.113 4.67059H267.339L268.768 3.24185V44.6753H265.567V1.81311H286.827C289.608 1.81311 292.028 2.32745 294.085 3.35615C296.181 4.34674 297.819 5.75643 299 7.58521C300.181 9.3759 300.772 11.4523 300.772 13.8145C300.772 16.1767 300.181 18.2722 299 20.101C297.819 21.8917 296.181 23.3014 294.085 24.33C292.028 25.3206 289.608 25.8159 286.827 25.8159H267.796V22.9585ZM278.312 24.6158H282.655L301.457 44.6753H297.114L278.312 24.6158Z" fill="black"/>
</svg>
