<svg width="18" height="17" viewBox="0 0 18 17" fill="none" xmlns="http://www.w3.org/2000/svg">
<circle cx="9.11087" cy="8.36575" r="8.13333" fill="#60AE59"/>
<circle cx="9.10637" cy="8.35637" r="6.90031" fill="url(#paint0_linear_112_471)"/>
<path d="M10.8208 5.22168L5.46582 5.25182L5.49194 9.89282L10.8469 9.86268L10.8208 5.22168Z" stroke="#D6D6D6" stroke-width="0.714011" stroke-linecap="round" stroke-linejoin="round"/>
<path d="M10.8309 7.00662L12.2589 6.99859L13.3359 8.06356L13.346 9.84856L10.847 9.86262L10.8309 7.00662Z" stroke="#D6D6D6" stroke-width="0.714011" stroke-linecap="round" stroke-linejoin="round"/>
<path d="M7.1085 11.6687C7.60141 11.6659 7.99875 11.2641 7.99598 10.7712C7.9932 10.2783 7.59137 9.88094 7.09845 9.88372C6.60554 9.88649 6.2082 10.2883 6.21098 10.7812C6.21375 11.2742 6.61559 11.6715 7.1085 11.6687Z" stroke="#D6D6D6" stroke-width="0.714011" stroke-linecap="round" stroke-linejoin="round"/>
<path d="M11.7496 11.6426C12.2425 11.6399 12.6398 11.238 12.637 10.7451C12.6343 10.2522 12.2324 9.85486 11.7395 9.85764C11.2466 9.86041 10.8493 10.2622 10.852 10.7552C10.8548 11.2481 11.2567 11.6454 11.7496 11.6426Z" stroke="#D6D6D6" stroke-width="0.714011" stroke-linecap="round" stroke-linejoin="round"/>
<defs>
<linearGradient id="paint0_linear_112_471" x1="9.10637" y1="1.45605" x2="9.10637" y2="15.2567" gradientUnits="userSpaceOnUse">
<stop stop-color="#11B003"/>
<stop offset="1" stop-color="#3EB034"/>
</linearGradient>
</defs>
</svg>
