<svg width="157" height="66" viewBox="0 0 157 66" fill="none" xmlns="http://www.w3.org/2000/svg">
<path d="M21.85 50.1168L29.1654 22.8156L51.3449 18.2769L74.0254 26.5378L66.1641 55.8764L48.1686 61.0995L21.85 50.1168Z" fill="#E1E2F5"/>
<path d="M20.8772 49.8561L20.6492 50.707L21.4622 51.0463L47.7807 62.0289L48.1084 62.1657L48.4493 62.0667L66.4448 56.8436L66.99 56.6854L67.1369 56.1371L74.9982 26.7984L75.237 25.9072L74.3701 25.5914L51.6896 17.3305L51.422 17.2331L51.143 17.2902L28.9634 21.8289L28.3536 21.9537L28.1925 22.5549L20.8772 49.8561Z" stroke="#B6B6B6" stroke-opacity="0.7" stroke-width="2.01431"/>
<path d="M41.1174 46.7847H12.853L2.72852 26.5357L4.83779 2.48993H35.2114L44.9141 18.5204L41.1174 46.7847Z" fill="#E1E2F5"/>
<path d="M41.1174 47.7919H41.9983L42.1155 46.9188L45.9122 18.6545L45.9595 18.3027L45.7757 17.9989L36.073 1.96842L35.7791 1.48278H35.2114H4.83779H3.91512L3.83449 2.40192L1.72522 26.4477L1.70033 26.7314L1.82769 26.9861L11.9522 47.2352L12.2306 47.7919H12.853H41.1174Z" stroke="#B6B6B6" stroke-opacity="0.7" stroke-width="2.01431"/>
<path d="M86.2605 42.4358H88.7498C88.7932 42.7312 88.9279 42.9919 89.1538 43.2178C89.3797 43.4437 89.6794 43.6175 90.0531 43.7391C90.4353 43.8607 90.8785 43.9216 91.3824 43.9216C92.1035 43.9216 92.6683 43.8216 93.0766 43.6218C93.4937 43.422 93.7022 43.1396 93.7022 42.7747C93.7022 42.4966 93.5806 42.2838 93.3373 42.1361C93.1027 41.9797 92.6596 41.8667 92.008 41.7972L90.1182 41.6017C88.8063 41.4714 87.8549 41.1673 87.264 40.6894C86.6819 40.2116 86.3909 39.5599 86.3909 38.7345C86.3909 38.0829 86.582 37.5268 86.9643 37.0664C87.3553 36.6059 87.8983 36.254 88.5934 36.0107C89.2972 35.7674 90.1182 35.6458 91.0566 35.6458C91.9862 35.6458 92.8073 35.7805 93.5198 36.0498C94.2322 36.3191 94.8013 36.6927 95.227 37.1706C95.6528 37.6485 95.883 38.2045 95.9178 38.8388H93.4285C93.3938 38.5781 93.2721 38.3566 93.0636 38.1741C92.8638 37.983 92.5901 37.8353 92.2425 37.731C91.9037 37.6181 91.491 37.5616 91.0044 37.5616C90.3528 37.5616 89.8315 37.6572 89.4405 37.8483C89.0582 38.0308 88.8671 38.2958 88.8671 38.6433C88.8671 38.904 88.98 39.1081 89.2059 39.2558C89.4405 39.4036 89.8532 39.5122 90.444 39.5817L92.438 39.8032C93.3503 39.8988 94.0802 40.0508 94.6275 40.2594C95.1749 40.4679 95.5702 40.7546 95.8135 41.1195C96.0568 41.4844 96.1784 41.9449 96.1784 42.501C96.1784 43.17 95.9742 43.7565 95.5659 44.2604C95.1662 44.7557 94.6015 45.1423 93.8716 45.4203C93.1505 45.6984 92.3077 45.8374 91.3433 45.8374C90.3441 45.8374 89.4666 45.694 88.7107 45.4073C87.9635 45.1206 87.3727 44.7252 86.9382 44.2213C86.5125 43.7087 86.2866 43.1135 86.2605 42.4358ZM105.784 39.8293V41.6539H98.7075V39.8293H105.784ZM100.376 40.7416L99.724 44.7817L98.6945 43.6218H106.201V45.6288H97.2609L98.0168 40.7416L97.2609 35.8543H106.136V37.8613H98.6945L99.724 36.7014L100.376 40.7416ZM121.829 35.8543V45.6288H119.483V36.7145L120.056 36.7536L116.082 45.6288H113.566L109.591 36.7796L110.165 36.7275V45.6288H107.819V35.8543H111.611L115.326 44.4038H114.335L118.036 35.8543H121.829ZM88.4891 59.6609V57.6799H95.2401V59.6609H88.4891ZM93.5198 51.8543L98.0291 61.6288H95.4095L91.5388 52.8839H92.2947L88.437 61.6288H85.8174L90.3267 51.8543H93.5198ZM109.177 57.5887C109.082 58.4315 108.791 59.1744 108.304 59.8173C107.818 60.4516 107.175 60.9468 106.375 61.303C105.576 61.6593 104.664 61.8374 103.639 61.8374C102.518 61.8374 101.532 61.6245 100.68 61.1988C99.8373 60.773 99.1813 60.1779 98.7122 59.4133C98.243 58.6487 98.0084 57.7581 98.0084 56.7416C98.0084 55.725 98.243 54.8345 98.7122 54.0699C99.1813 53.3053 99.8373 52.7101 100.68 52.2844C101.532 51.8587 102.518 51.6458 103.639 51.6458C104.664 51.6458 105.576 51.8239 106.375 52.1801C107.175 52.5364 107.818 53.0316 108.304 53.6659C108.791 54.3001 109.082 55.043 109.177 55.8945H106.701C106.614 55.4513 106.436 55.0734 106.167 54.7606C105.906 54.4478 105.559 54.2089 105.124 54.0438C104.699 53.87 104.203 53.7832 103.639 53.7832C102.987 53.7832 102.426 53.9048 101.957 54.1481C101.488 54.3827 101.128 54.7215 100.876 55.1646C100.624 55.6077 100.498 56.1334 100.498 56.7416C100.498 57.3498 100.624 57.8754 100.876 58.3185C101.128 58.7616 101.488 59.1048 101.957 59.3481C102.426 59.5827 102.987 59.7 103.639 59.7C104.203 59.7 104.699 59.6175 105.124 59.4524C105.559 59.2873 105.906 59.0484 106.167 58.7356C106.436 58.4228 106.614 58.0405 106.701 57.5887H109.177ZM103.117 61.3943H104.316L103.652 62.5411L103.039 62.502C103.256 62.3891 103.478 62.3022 103.704 62.2414C103.938 62.1806 104.199 62.1502 104.486 62.1502C105.068 62.1502 105.515 62.2631 105.828 62.489C106.141 62.7149 106.297 63.0233 106.297 63.4143C106.297 63.8314 106.093 64.1746 105.685 64.4439C105.276 64.7219 104.677 64.861 103.886 64.861C103.2 64.861 102.626 64.735 102.166 64.483C101.705 64.2397 101.41 63.8965 101.28 63.4534H102.883C102.952 63.5664 103.065 63.6533 103.221 63.7141C103.387 63.7836 103.608 63.8183 103.886 63.8183C104.182 63.8183 104.399 63.7749 104.538 63.688C104.685 63.6011 104.759 63.4925 104.759 63.3622C104.759 63.2406 104.699 63.1406 104.577 63.0624C104.455 62.9842 104.273 62.9451 104.03 62.9451C103.882 62.9451 103.738 62.9538 103.599 62.9712C103.469 62.9973 103.352 63.032 103.248 63.0755H102.036L103.117 61.3943ZM112.888 57.302C112.888 57.7799 112.979 58.1969 113.162 58.5531C113.353 58.9007 113.627 59.17 113.983 59.3612C114.339 59.5436 114.778 59.6348 115.299 59.6348C115.829 59.6348 116.272 59.5436 116.628 59.3612C116.985 59.17 117.254 58.9007 117.436 58.5531C117.619 58.1969 117.71 57.7799 117.71 57.302V51.8543H120.16V57.4193C120.16 58.3055 119.956 59.0788 119.548 59.7391C119.148 60.3994 118.583 60.9164 117.853 61.29C117.124 61.6549 116.272 61.8374 115.299 61.8374C114.326 61.8374 113.474 61.6549 112.745 61.29C112.015 60.9164 111.446 60.3994 111.037 59.7391C110.629 59.0788 110.425 58.3055 110.425 57.4193V51.8543H112.888V57.302ZM132.672 57.5887C132.576 58.4315 132.285 59.1744 131.799 59.8173C131.312 60.4516 130.669 60.9468 129.87 61.303C129.071 61.6593 128.158 61.8374 127.133 61.8374C126.012 61.8374 125.026 61.6245 124.175 61.1988C123.332 60.773 122.676 60.1779 122.207 59.4133C121.738 58.6487 121.503 57.7581 121.503 56.7416C121.503 55.725 121.738 54.8345 122.207 54.0699C122.676 53.3053 123.332 52.7101 124.175 52.2844C125.026 51.8587 126.012 51.6458 127.133 51.6458C128.158 51.6458 129.071 51.8239 129.87 52.1801C130.669 52.5364 131.312 53.0316 131.799 53.6659C132.285 54.3001 132.576 55.043 132.672 55.8945H130.196C130.109 55.4513 129.931 55.0734 129.661 54.7606C129.401 54.4478 129.053 54.2089 128.619 54.0438C128.193 53.87 127.698 53.7832 127.133 53.7832C126.481 53.7832 125.921 53.9048 125.452 54.1481C124.983 54.3827 124.622 54.7215 124.37 55.1646C124.118 55.6077 123.992 56.1334 123.992 56.7416C123.992 57.3498 124.118 57.8754 124.37 58.3185C124.622 58.7616 124.983 59.1048 125.452 59.3481C125.921 59.5827 126.481 59.7 127.133 59.7C127.698 59.7 128.193 59.6175 128.619 59.4524C129.053 59.2873 129.401 59.0484 129.661 58.7356C129.931 58.4228 130.109 58.0405 130.196 57.5887H132.672ZM135.313 59.6609V57.6799H142.064V59.6609H135.313ZM140.343 51.8543L144.853 61.6288H142.233L138.362 52.8839H139.118L135.261 61.6288H132.641L137.15 51.8543H140.343ZM147.555 56.1551H151.217C151.678 56.1551 152.043 56.0508 152.312 55.8423C152.581 55.6251 152.716 55.3254 152.716 54.9431C152.716 54.5608 152.581 54.2654 152.312 54.0568C152.043 53.8396 151.678 53.731 151.217 53.731H147.203L148.311 52.519V61.6288H145.848V51.8543H151.543C152.273 51.8543 152.912 51.9846 153.459 52.2453C154.006 52.5059 154.432 52.8665 154.736 53.327C155.04 53.7875 155.192 54.3262 155.192 54.9431C155.192 55.5513 155.04 56.0856 154.736 56.5461C154.432 57.0066 154.006 57.3671 153.459 57.6278C152.912 57.8798 152.273 58.0058 151.543 58.0058H147.555V56.1551ZM149.132 57.0544H151.908L155.505 61.6288H152.651L149.132 57.0544Z" fill="black"/>
<path d="M94.2492 28.2846C97.968 28.2846 100.983 25.2699 100.983 21.5511C100.983 17.8322 97.968 14.8175 94.2492 14.8175C90.5303 14.8175 87.5156 17.8322 87.5156 21.5511C87.5156 25.2699 90.5303 28.2846 94.2492 28.2846Z" stroke="black" stroke-width="2.40485" stroke-linecap="round" stroke-linejoin="round"/>
<path d="M89.4883 16.7905L99.0095 26.3118" stroke="black" stroke-width="2.40485" stroke-linecap="round" stroke-linejoin="round"/>
</svg>
